<svg xmlns="http://www.w3.org/2000/svg" version="1.1" xmlns:xlink="http://www.w3.org/1999/xlink" xmlns:svgjs="http://svgjs.dev/svgjs" width="1000" height="1000" viewBox="0 0 1000 1000"><g transform="matrix(1,0,0,1,-0.14221556886212738,-0.14221556886229791)"><svg viewBox="0 0 334 334" data-background-color="#ffffff" preserveAspectRatio="xMidYMid meet" height="1000" width="1000" xmlns="http://www.w3.org/2000/svg" xmlns:xlink="http://www.w3.org/1999/xlink"><g id="tight-bounds" transform="matrix(1,0,0,1,0.04749999999998522,0.04750000000001364)"><svg viewBox="0 0 333.90454557049503 333.90454557049503" height="333.90454557049503" width="333.90454557049503"><g><svg></svg></g><g><svg viewBox="0 0 333.90454557049503 333.90454557049503" height="333.90454557049503" width="333.90454557049503"><g><path d="M0 166.952c0-92.205 74.747-166.952 166.952-166.952 92.205 0 166.952 74.747 166.953 166.952 0 92.205-74.747 166.952-166.953 166.953-92.205 0-166.952-74.747-166.952-166.953zM166.952 316.63c82.665 0 149.677-67.013 149.678-149.678 0-82.665-67.013-149.677-149.678-149.677-82.665 0-149.677 67.013-149.677 149.677 0 82.665 67.013 149.677 149.677 149.678z" data-fill-palette-color="tertiary" fill="#2563eb" stroke="transparent"></path><ellipse rx="160.27418187383762" ry="160.27418187383762" cx="166.95227278524752" cy="166.95227278524752" fill="#2563eb" stroke="transparent" stroke-width="0" fill-opacity="1" data-fill-palette-color="tertiary"></ellipse></g><g transform="matrix(1,0,0,1,73.74663248391306,71.17305217166896)"><svg viewBox="0 0 186.4112806026689 191.55844122715712" height="191.55844122715712" width="186.4112806026689"><g><svg viewBox="0 0 186.4112806026689 191.55844122715712" height="191.55844122715712" width="186.4112806026689"><g><svg viewBox="0 0 186.4112806026689 191.55844122715712" height="191.55844122715712" width="186.4112806026689"><g id="textblocktransform"><svg viewBox="0 0 186.4112806026689 191.55844122715712" height="191.55844122715712" width="186.4112806026689" id="textblock"><g><svg viewBox="0 0 186.4112806026689 191.55844122715712" height="191.55844122715712" width="186.4112806026689"><g><svg viewBox="0 0 186.4112806026689 191.55844122715712" height="191.55844122715712" width="186.4112806026689"><g transform="matrix(1,0,0,1,0,0)"><svg width="186.4112806026689" viewBox="0 -38.05 37.22222543352601 38.25" height="191.55844122715712" data-palette-color="#ffffff"><g transform="matrix(1,0,0,1,0,0)"><g><svg width="6.014816955684008" viewBox="2.59 -36.86 26.28 36.86" height="8.437000000000001" data-palette-color="#ffffff" id="scriptelement" x="31.207408477842" y="-38.05"><path d="M28.87 0L2.95 0 2.95-5.54 15.89-17.52Q17.54-19.12 18.67-20.4 19.8-21.68 20.38-22.91 20.97-24.15 20.97-25.59L20.97-25.59Q20.97-27.18 20.24-28.35 19.51-29.51 18.25-30.14 16.99-30.77 15.39-30.77L15.39-30.77Q13.73-30.77 12.48-30.1 11.24-29.42 10.56-28.16 9.89-26.9 9.89-25.16L9.89-25.16 2.59-25.16Q2.59-28.73 4.21-31.36 5.82-33.98 8.74-35.42 11.65-36.86 15.45-36.86L15.45-36.86Q19.35-36.86 22.26-35.48 25.16-34.11 26.78-31.68 28.39-29.24 28.39-26.1L28.39-26.1Q28.39-24.04 27.58-22.03 26.78-20.03 24.72-17.59 22.66-15.15 18.91-11.74L18.91-11.74 13.6-6.53 13.6-6.29 28.87-6.29 28.87 0Z" opacity="1" transform="matrix(1,0,0,1,0,0)" fill="#ffffff" class="undefined-123" data-fill-palette-color="quaternary" id="lv-123"></path></svg></g></g><path d="M13-32.1Q11.95-29.8 9.9-28.3 7.85-26.8 5.45-26.8 3.05-26.8 1.53-28.2 0-29.6 0-32.35 0-35.1 2.45-36.58 4.9-38.05 8.2-38.05L8.2-38.05 28.05-38.05Q28.2-37.35 28.2-36.7L28.2-36.7Q28.2-35 27.1-33.55 26-32.1 23.75-32.1L23.75-32.1Q23.65-32.1 23.6-32.1L23.6-32.1 13-32.1ZM9.75-32.1L6.5-32.1Q4.65-32.1 4.65-30.8L4.65-30.8Q4.65-29.75 6.25-29.75L6.25-29.75Q7-29.75 8.03-30.4 9.05-31.05 9.75-32.1L9.75-32.1ZM16.85-9.6Q15.6 0.2 8 0.2L8 0.2Q5.3 0.2 3.68-1.45 2.05-3.1 2.05-5.6L2.05-5.6Q2.05-11.45 10.95-15.6L10.95-15.6 12.7-28.9Q14.75-30.2 17.45-30.2L17.45-30.2Q18.7-30.2 19.85-29.95L19.85-29.95 16.85-9.6ZM10.4-11.35Q5.75-8.65 5.75-6.15L5.75-6.15Q5.75-4.35 7.5-4.35L7.5-4.35Q9.5-4.35 10-8.2L10-8.2 10.4-11.35Z" opacity="1" transform="matrix(1,0,0,1,0,0)" fill="#ffffff" class="wordmark-text-0" data-fill-palette-color="quaternary" id="text-0"></path></svg></g></svg></g></svg></g></svg></g></svg></g><g></g></svg></g></svg></g></svg></g><defs></defs></svg><rect width="333.90454557049503" height="333.90454557049503" fill="none" stroke="none" visibility="hidden"></rect></g></svg></g></svg>